<?xml version="1.0" encoding="UTF-8" standalone="no"?>
<!-- Generator: Adobe Illustrator 23.0.3, SVG Export Plug-In . SVG Version: 6.00 Build 0)  -->

<svg
   xmlns:dc="http://purl.org/dc/elements/1.1/"
   xmlns:cc="http://creativecommons.org/ns#"
   xmlns:rdf="http://www.w3.org/1999/02/22-rdf-syntax-ns#"
   xmlns:svg="http://www.w3.org/2000/svg"
   xmlns="http://www.w3.org/2000/svg"
   xmlns:sodipodi="http://sodipodi.sourceforge.net/DTD/sodipodi-0.dtd"
   xmlns:inkscape="http://www.inkscape.org/namespaces/inkscape"
   version="1.1"
   id="Capa_1"
   x="0px"
   y="0px"
   viewBox="0 0 98.267709 105.82678"
   xml:space="preserve"
   sodipodi:docname="bread.svg"
   inkscape:version="0.92.4 (5da689c313, 2019-01-14)"
   width="26mm"
   height="28mm"><metadata
   id="metadata4703"><rdf:RDF><cc:Work
       rdf:about=""><dc:format>image/svg+xml</dc:format><dc:type
         rdf:resource="http://purl.org/dc/dcmitype/StillImage" /><dc:title></dc:title></cc:Work></rdf:RDF></metadata><defs
   id="defs4701" /><sodipodi:namedview
   pagecolor="#ffffff"
   bordercolor="#666666"
   borderopacity="1"
   objecttolerance="10"
   gridtolerance="10"
   guidetolerance="10"
   inkscape:pageopacity="0"
   inkscape:pageshadow="2"
   inkscape:window-width="1920"
   inkscape:window-height="1001"
   id="namedview4699"
   showgrid="false"
   inkscape:zoom="1.4142136"
   inkscape:cx="245.80905"
   inkscape:cy="213.13349"
   inkscape:window-x="-9"
   inkscape:window-y="-9"
   inkscape:window-maximized="1"
   inkscape:current-layer="Capa_1"
   inkscape:snap-text-baseline="true"
   units="mm"><inkscape:grid
     type="xygrid"
     id="grid406" /></sodipodi:namedview>
<style
   type="text/css"
   id="style4209">
	.st0{fill:url(#SVGID_1_);}
	.st1{fill:#282829;}
</style>























<g
   id="g4558"
   transform="matrix(0.95010335,0,0,0.93678944,-44.229642,-769.92005)">
	<path
   class="st1"
   d="m 133.9,890.2 c 2.5,9.3 -1,17.6 -1,17.6 -0.3,-12.4 -6.5,-19 -9.2,-21.4 -6.1,-1.7 -12.9,-2.8 -20.2,-3.1 5.4,10.9 0.7,22 0.7,22 -0.4,-13.5 -7.6,-20.2 -9.8,-22 -6.9,0.4 -13.4,1.5 -19.2,3.2 4.8,10.6 0.4,21.3 0.4,21.3 -0.3,-9.5 -3.9,-15.6 -6.8,-19 -11.3,4.7 -18.6,11.8 -18.6,19.8 0,14 22.2,25.4 49.6,25.4 27.4,0 49.6,-11.4 49.6,-25.4 -0.1,-7.2 -6,-13.8 -15.5,-18.4 z"
   id="path4548"
   inkscape:connector-curvature="0"
   style="fill:#282829" />
	<g
   id="g4556">
		<path
   class="st1"
   d="m 119.5,832.6 c 4.1,4.5 2.1,10.2 -0.4,15.2 -1.5,3 -3.8,6.2 -4.1,9.9 -0.4,5.5 5.9,8.1 8.7,9.4 1.3,0.6 -0.9,4.6 -2.1,4.1 -5.7,-2.5 -11.3,-6.3 -8.7,-15.1 1.8,-6.1 11.7,-16.6 6.1,-22.6 -0.9,-1 -0.5,-2 0.5,-0.9 z"
   id="path4550"
   inkscape:connector-curvature="0"
   style="fill:#282829" />
		<path
   class="st1"
   d="m 82.5,828.6 c 4.1,4.5 2.1,10.2 -0.4,15.2 -1.5,3 -3.8,6.2 -4.1,9.9 -0.4,5.5 5.9,8.1 8.7,9.4 1.3,0.6 -0.9,4.6 -2.1,4.1 -5.7,-2.5 -11.3,-6.3 -8.7,-15.1 1.8,-6.1 11.7,-16.6 6.1,-22.6 -0.8,-1.1 -0.5,-2 0.5,-0.9 z"
   id="path4552"
   inkscape:connector-curvature="0"
   style="fill:#282829" />
		<path
   class="st1"
   d="m 99.8,822.8 c 4.6,6.2 2.3,14.2 -0.4,21.1 -1.7,4.3 -4.2,8.6 -4.5,13.9 -0.5,7.7 6.5,11.3 9.7,13.1 1.5,0.8 -1,6.5 -2.3,5.8 -6.3,-3.5 -12.5,-8.8 -9.6,-21.1 2,-8.5 12.9,-23.1 6.8,-31.5 -1.2,-1.5 -0.8,-2.8 0.3,-1.3 z"
   id="path4554"
   inkscape:connector-curvature="0"
   style="fill:#282829" />
	</g>
</g>



<path
   class="st1"
   d="m 94.849035,-152.59731 c 1.6,-5.3 0.2,-11.3 -4.1,-15.2 l 2.3,-3.1 8.000005,6.1 4.69999,-6.2 -7.999995,-6.1 2.900005,-3.9 9.89999,7.5 c 1.6,-5.3 0.2,-11.3 -4.1,-15.2 l 2.1,-2.8 3.6,2.7 c 2.5,1.9 6.1,1.4 8,-1.1 l 0.5,-0.7 c 1.89997,-2.5 1.39997,-6.1 -1.1,-8 l -3.6,-2.7 7.89997,-10.4 c 0.1,-0.1 0.2,-0.3 0.2,-0.4 3.7,2 8.49998,1.1 11.19998,-2.4 2.9,-3.9 2.2,-9.4 -1.7,-12.3 -3.89998,-2.9 -9.39998,-2.2 -12.29995,1.7 -2.7,3.5 -2.3,8.3 0.69997,11.4 -0.1,0.1 -0.2,0.2 -0.29997,0.3 l -7.9,10.4 -3.6,-2.7 c -2.5,-1.9 -6.1,-1.4 -8,1.1 l -0.49999,0.7 c -1.900005,2.5 -1.4,6.1 1.09999,8 l 3.6,2.7 -2.1,2.8 c -4.899995,-3 -10.999995,-2.8 -15.699995,0.2 l 9.9,7.5 -2.9,3.9 -8,-6.1 -4.7,6.2 8,6.1 -2.3,3.1 c -4.9,-3 -11,-2.8 -15.7,0.2 l 9.9,7.5 -2.9,3.9 -3.6,-2.7 c -2.5,-1.9 -6.1,-1.4 -8,1.1 l -0.5,0.7 c -1.9,2.5 -1.4,6.1 1.1,8 l 3.6,2.7 -8.8,11.7 c -0.5,0.6 -0.4,1.5 0.3,2 0.6,0.50001 1.5,0.40001 2,-0.3 l 8.8,-11.7 3.6,2.7 c 2.5,1.9 6.1,1.4 8,-1.1 l 0.5,-0.7 c 1.9,-2.5 1.4,-6.1 -1.1,-8 l -3.6,-2.7 2.9,-3.9 z m 29.099965,-70.4 c 1.9,-2.5 5.4,-2.9 7.8,-1.1 2.49998,1.9 2.89998,5.4 1.09998,7.8 -1.89998,2.5 -5.39998,2.9 -7.79998,1.1 -2.5,-1.8 -3,-5.4 -1.1,-7.8 z"
   id="path4576"
   inkscape:connector-curvature="0"
   style="fill:#282829" />


<g
   id="g4612"
   transform="matrix(0.94637322,0,0,0.96007387,-138.32979,-495.64138)">
	<path
   class="st1"
   d="m 414.8,442.2 h -89 c 0.5,2.2 5.5,4.1 13.2,5.5 -0.2,0.3 -0.3,0.7 -0.3,1 0,1.2 1,2.3 2.3,2.3 h 58.7 c 1.2,0 2.3,-1 2.3,-2.3 0,-0.4 -0.1,-0.7 -0.3,-1 7.7,-1.4 12.6,-3.4 13.1,-5.5 z"
   id="path4596"
   inkscape:connector-curvature="0"
   style="fill:#282829" />
	<g
   id="g4604">
		<path
   class="st1"
   d="m 390.3,355.3 c 4.2,4.5 2.1,10.3 -0.4,15.4 -1.5,3.1 -3.8,6.3 -4.1,10.1 -0.4,5.6 6,8.2 8.9,9.5 1.3,0.6 -0.9,4.7 -2.1,4.2 -5.7,-2.5 -11.4,-6.4 -8.8,-15.4 1.8,-6.2 11.8,-16.8 6.2,-22.9 -1,-1 -0.7,-1.9 0.3,-0.9 z"
   id="path4598"
   inkscape:connector-curvature="0"
   style="fill:#282829" />
		<path
   class="st1"
   d="m 352.8,351.2 c 4.2,4.5 2.1,10.3 -0.4,15.4 -1.5,3.1 -3.8,6.3 -4.1,10.1 -0.4,5.6 6,8.3 8.9,9.5 1.3,0.6 -1,4.7 -2.1,4.2 -5.7,-2.5 -11.4,-6.4 -8.8,-15.4 1.8,-6.2 11.8,-16.8 6.2,-22.9 -1.1,-1 -0.7,-1.9 0.3,-0.9 z"
   id="path4600"
   inkscape:connector-curvature="0"
   style="fill:#282829" />
		<path
   class="st1"
   d="m 370.3,345.4 c 4.7,6.3 2.3,14.4 -0.4,21.5 -1.7,4.3 -4.2,8.7 -4.6,14.1 -0.5,7.8 6.6,11.5 9.8,13.3 1.5,0.8 -1.1,6.6 -2.3,5.9 -6.4,-3.6 -12.7,-8.9 -9.8,-21.4 2,-8.6 13.1,-23.5 6.9,-32 -1.1,-1.6 -0.7,-2.9 0.4,-1.4 z"
   id="path4602"
   inkscape:connector-curvature="0"
   style="fill:#282829" />
	</g>
	<g
   id="g4610">
		<path
   class="st1"
   d="m 360.5,414.1 c -9.1,-3.1 -17.8,-2.3 -21.6,1.7 l -4.6,-1.6 c 0,-1.7 -1.2,-3.5 -3.2,-4.1 -2.4,-0.8 -4.9,0.1 -5.6,2.2 -0.2,0.6 -0.2,1.3 0,1.9 -0.5,0.4 -1,0.9 -1.2,1.5 -0.7,2 0.7,4.3 3.1,5.1 2,0.7 4,0.1 5,-1.3 l 4.6,1.6 c 0.5,5.4 6.9,11.5 16,14.6 10.7,3.7 21.1,1.9 23.2,-4.1 2.1,-6 -4.9,-13.8 -15.7,-17.5 z"
   id="path4606"
   inkscape:connector-curvature="0"
   style="fill:#282829" />
		<path
   class="st1"
   d="m 412.6,418.5 c -6,6.8 -15.3,-2.1 -15.3,-2.1 -17.3,-16.8 -30.5,-12 -38.2,-5.8 0.8,0.2 1.6,0.5 2.4,0.8 13.4,4.6 22.2,14.4 19.6,21.9 -0.8,2.3 -2.6,4.1 -5.1,5.4 39.2,3.3 40.2,-14.4 40.2,-14.4 1.3,-5.3 -3.6,-5.8 -3.6,-5.8 z"
   id="path4608"
   inkscape:connector-curvature="0"
   style="fill:#282829" />
	</g>
</g>
<g
   id="g4622"
   transform="matrix(0.94352182,0,0,0.97339203,-3.4473177,-273.48156)">
	<path
   class="st1"
   d="m 523.6,177.6 h -41.5 c 0.2,1 2.5,1.9 6.1,2.6 -0.1,0.1 -0.1,0.3 -0.1,0.5 0,0.6 0.5,1.1 1.1,1.1 h 27.4 c 0.6,0 1,-0.5 1,-1.1 0,-0.2 0,-0.3 -0.1,-0.5 3.6,-0.7 5.9,-1.6 6.1,-2.6 z"
   id="path4614"
   inkscape:connector-curvature="0"
   style="fill:#282829" />
	<g
   id="g4620">
		<path
   class="st1"
   d="m 540.7,75.5 -19.2,0.8 c -0.5,0 -0.9,0.3 -1.2,0.7 l -7.9,11.7 c -0.9,-0.3 -1.9,-0.4 -2.9,-0.4 -2.8,0 -5.3,1.2 -7.1,3 -0.8,-0.2 -1.7,-0.4 -2.6,-0.4 -3.5,0 -6.5,1.8 -8.3,4.5 -0.5,-0.1 -1.1,-0.1 -1.6,-0.1 -5.6,0 -10.1,4.6 -10.1,10.3 0,1.8 0.5,3.5 1.3,5 h 44.1 c 0.8,-1.5 1.3,-3.2 1.3,-5 0,-4.7 -3,-8.6 -7.2,-9.9 -0.7,-2.3 -2.1,-4.3 -4,-5.7 l 7.2,-10.7 18.4,-0.8 c 0.9,0 1.5,-0.7 1.5,-1.6 -0.1,-0.8 -0.8,-1.4 -1.7,-1.4 z"
   id="path4616"
   inkscape:connector-curvature="0"
   style="fill:#282829" />
		<path
   class="st1"
   d="m 522.7,122.5 c -0.2,0 -0.4,0 -0.6,0 l 1.2,-7.4 h -40.5 l 8.5,60.2 h 22.6 l 4.6,-29.4 c 1.3,0.5 2.7,0.8 4.2,0.8 6.7,0 12.1,-5.4 12.1,-12.1 0,-6.7 -5.4,-12.1 -12.1,-12.1 z m 0,21 c -1.3,0 -2.6,-0.3 -3.8,-0.8 l 2.7,-17 c 0.4,0 0.7,-0.1 1.1,-0.1 5,0 9,4 9,9 0,4.9 -4,8.9 -9,8.9 z"
   id="path4618"
   inkscape:connector-curvature="0"
   style="fill:#282829" />
	</g>
</g>





<g
   id="g4684"
   transform="translate(-278.53341,-322.99701)">
	<path
   class="st1"
   d="m 273.5,78.3 c -12.5,0 -22.6,9.6 -22.6,22.3 0,0 0.1,0 0.1,0 h 3.6 c 0.5,-3.5 2.2,-8.1 3.9,-9.9 2.2,-2.3 3.9,0.3 3.9,0.3 l 8.5,9.8 h 4.9 L 283,89.3 c 0,0 1.3,-2.8 3.8,-0.9 2.5,1.9 5.6,7.4 5.9,10.9 0.3,3.5 -0.7,2.5 -2.9,2.6 -1.3,0.1 -6.3,0.1 -10.2,0.1 1,0.5 1.5,1.2 1.5,2.1 l 6.6,1.1 c 0,0 3.3,-0.1 2.5,3 -0.8,3.1 -4.7,7.9 -7.8,9.6 -3,1.6 -2.5,0.3 -3.5,-1.5 -0.5,-0.8 -1.5,-3.7 -2.5,-6.5 l -2.4,1.9 c 0.6,2.1 1,4 1.2,4.7 0.4,2.1 1.7,2.9 -1.8,3.5 -2.3,0.4 -5.6,-0.1 -8.3,-1.1 l -3.1,2.4 c 3.4,2.1 7.4,3.3 11.7,3.3 12.5,0 22.6,-10.3 22.6,-23.1 C 296.1,88.7 286,78.3 273.5,78.3 Z m 6.8,8.7 c -0.8,2 -6.4,13.2 -6.4,13.2 0,0 -1.4,0.5 -1.7,-0.6 l -6.3,-12 c 0,0 -2,-2.4 0.9,-3.8 2.8,-1.4 9.1,-1.8 12.4,-0.5 3.4,1.2 1.9,1.7 1.1,3.7 z"
   id="path4680"
   inkscape:connector-curvature="0"
   style="fill:#282829" />
	<path
   class="st1"
   d="M 260.8,174.2 H 244 v -44 c 2,-0.3 3.9,-1.1 5.5,-2.3 l 24.7,-19.3 c 4.3,-3.4 3.7,-6.1 -1.5,-6.1 H 251 c -5.1,0 -13.5,0 -18.7,0 h -21.7 c -5.1,0 -5.8,2.8 -1.5,6.1 l 24.7,19.3 c 1.6,1.2 3.5,2 5.5,2.3 v 44 h -16.8 c -0.7,0 -1.3,0.6 -1.3,1.3 0,0.7 0.6,1.3 1.3,1.3 h 38.3 c 0.7,0 1.3,-0.6 1.3,-1.3 0,-0.7 -0.6,-1.3 -1.3,-1.3 z"
   id="path4682"
   inkscape:connector-curvature="0"
   style="fill:#282829" />
</g>

</svg>